<?xml version="1.0" encoding="UTF-8"?>
<svg width="90px" height="132px" viewBox="0 0 90 132" version="1.1" xmlns="http://www.w3.org/2000/svg" xmlns:xlink="http://www.w3.org/1999/xlink">
    <!-- Generator: Sketch 42 (36781) - http://www.bohemiancoding.com/sketch -->
    <title>audio icon</title>
    <desc>Created with Sketch.</desc>
    <defs>
        <path d="M79.88739,80.9319 C76.40304,94.60065 65.08968,105.1407 51,107.50266 L51,120 L39,120 L39,107.50164 C24.91875,105.13662 13.60275,94.58991 10.11486,80.93163 C9.74958,80.97675 9.37749,81 9,81 C4.02945,81 0,76.97055 0,72 C0,67.02945 4.02945,63 9,63 L9,35.98011 C9,16.10682 25.11615,0 45,0 C64.8729,0 81,16.12641 81,35.98011 L81,63 C85.97055,63 90,67.02945 90,72 C90,76.97055 85.97055,81 81,81 C80.62326,81 80.25195,80.97684 79.88739,80.9319 Z M65.78841,24 C61.63695,16.83126 53.87805,12 45,12 C36.11031,12 28.35177,16.82673 24.20421,24 L33.0057,24 C36.31626,24 39,26.66319 39,30 C39,33.31371 36.33987,36 33.0057,36 L21,36 L21,42 L33.0057,42 C36.31626,42 39,44.66319 39,48 C39,51.31371 36.33987,54 33.0057,54 L21,54 L21,66 L69,66 L69,54 L56.9943,54 C53.66013,54 51,51.31371 51,48 C51,44.66319 53.68374,42 56.9943,42 L69,42 L69,36 L56.9943,36 C53.66013,36 51,33.31371 51,30 C51,26.66319 53.68374,24 56.9943,24 L65.78841,24 Z M68.24796,78 L21.75435,78 C24.41733,88.34067 33.82152,96 45,96 C56.19114,96 65.5896,88.35063 68.24796,78 Z M15,126 C15,122.686293 17.69463,120 20.9724,120 L69.0276,120 C72.32607,120 75,122.66319 75,126 C75,129.313707 72.30537,132 69.0276,132 L20.9724,132 C17.67393,132 15,129.33681 15,126 Z" id="path-1"></path>
    </defs>
    <g id="Page-1" stroke="none" stroke-width="1" fill="none" fill-rule="evenodd">
        <g id="Audio" transform="translate(-45.000000, -54.000000)">
            <g id="audio-icon" transform="translate(45.000000, 54.000000)">
                <mask id="mask-2" fill="white">
                    <use xlink:href="#path-1"></use>
                </mask>
                <g id="Clip-2"></g>
                <polygon id="Fill-1" fill="#4D4D4D" mask="url(#mask-2)" points="-15 147 105 147 105 -15 -15 -15"></polygon>
            </g>
        </g>
    </g>
</svg>