<svg width="30" height="44" viewBox="0 0 30 44" xmlns="http://www.w3.org/2000/svg" xmlns:xlink="http://www.w3.org/1999/xlink">
    <title>
        audio icon 2
    </title>
    <defs>
        <path d="M26.63 26.977A12.01 12.01 0 0 1 17 35.834V40h-4v-4.166a12.021 12.021 0 0 1-9.628-8.857A3 3 0 1 1 3 21v-9.007C3 5.37 8.372 0 15 0c6.624 0 12 5.375 12 11.993V21a3 3 0 1 1-.37 5.977zM21.93 8A8.003 8.003 0 0 0 8.067 8h2.934C12.105 8 13 8.888 13 10c0 1.105-.887 2-1.998 2H7v2h4.002c1.103 0 1.998.888 1.998 2 0 1.105-.887 2-1.998 2H7v4h16v-4h-4.002A1.994 1.994 0 0 1 17 16c0-1.112.895-2 1.998-2H23v-2h-4.002A1.994 1.994 0 0 1 17 10c0-1.112.895-2 1.998-2h2.931zm.82 18H7.25A8.009 8.009 0 0 0 15 32c3.73 0 6.863-2.55 7.75-6zM5 42a2 2 0 0 1 1.99-2h16.02c1.099 0 1.99.888 1.99 2a2 2 0 0 1-1.99 2H6.99A1.99 1.99 0 0 1 5 42z" id="a"/>
    </defs>
    <g fill="none" fill-rule="evenodd">
        <mask id="b" fill="#fff">
            <use xlink:href="#a"/>
        </mask>
        <path fill="#4D4D4D" fill-rule="nonzero" mask="url(#b)" d="M-5 49h40V-5H-5z"/>
    </g>
</svg>
